<?xml version="1.0" standalone="no"?>
<!DOCTYPE svg PUBLIC "-//W3C//DTD SVG 20010904//EN"
 "http://www.w3.org/TR/2001/REC-SVG-20010904/DTD/svg10.dtd">
<svg version="1.0" xmlns="http://www.w3.org/2000/svg"
 width="513.000000pt" height="507.000000pt" viewBox="0 0 513.000000 507.000000"
 preserveAspectRatio="xMidYMid meet">

<g transform="translate(0.000000,507.000000) scale(0.100000,-0.100000)"
fill="#000000" stroke="none">
<path d="M645 5059 c-16 -4 -25 -7 -20 -8 12 -2 -40 -25 -77 -35 -21 -5 -28
-3 -28 9 0 8 -8 15 -17 15 -15 0 -16 -2 -3 -10 11 -7 7 -10 -20 -11 l-35 -1
30 -7 30 -7 -32 -11 c-19 -7 -33 -8 -33 -2 0 5 -7 9 -15 9 -8 0 -15 -4 -15
-10 0 -5 -9 -10 -20 -10 -14 0 -20 -7 -20 -21 0 -13 -10 -23 -30 -30 -16 -6
-30 -15 -30 -20 0 -5 -6 -9 -14 -9 -7 0 -16 -9 -19 -20 -3 -11 -19 -25 -35
-31 -23 -8 -31 -18 -36 -45 -4 -20 -13 -34 -21 -34 -8 0 -15 -7 -15 -15 0 -8
-9 -15 -20 -15 -11 0 -21 -4 -21 -10 -1 -5 -3 -13 -4 -17 -2 -5 -6 -19 -10
-31 -6 -18 -10 -20 -16 -10 -5 7 -8 -15 -7 -54 2 -42 -2 -72 -10 -80 -7 -7
-12 -22 -12 -35 0 -13 -4 -23 -10 -23 -5 0 -10 -7 -10 -15 0 -8 4 -15 8 -15
11 0 2 -74 -11 -81 -7 -5 -6 -22 2 -52 14 -56 14 -107 1 -107 -5 0 -10 -18
-10 -40 0 -22 5 -40 10 -40 6 0 10 -18 10 -40 0 -22 -4 -40 -10 -40 -5 0 -10
-18 -10 -40 0 -22 5 -40 10 -40 6 0 10 -18 10 -40 0 -22 -4 -40 -10 -40 -5 0
-10 -18 -10 -40 0 -22 5 -40 10 -40 6 0 10 -18 10 -40 0 -22 -4 -40 -10 -40
-5 0 -10 -18 -10 -40 0 -22 5 -40 10 -40 6 0 10 -18 10 -40 0 -22 -4 -40 -10
-40 -5 0 -10 -18 -10 -40 0 -22 5 -40 10 -40 6 0 10 -18 10 -40 0 -22 -4 -40
-10 -40 -5 0 -10 -18 -10 -40 0 -22 5 -40 10 -40 6 0 10 -18 10 -40 0 -22 -4
-40 -10 -40 -14 0 -13 -56 2 -79 8 -13 9 -38 2 -90 -6 -39 -7 -71 -2 -71 4 0
8 -18 8 -40 0 -22 -4 -40 -10 -40 -5 0 -10 -18 -10 -40 0 -22 5 -40 10 -40 13
0 13 -77 0 -85 -13 -8 -13 -75 0 -75 6 0 10 -18 10 -40 0 -22 -4 -40 -10 -40
-5 0 -10 -18 -10 -40 0 -22 5 -40 10 -40 6 0 10 -18 10 -40 0 -22 -4 -40 -10
-40 -5 0 -10 -18 -10 -40 0 -22 5 -40 10 -40 6 0 10 -18 10 -40 0 -22 -4 -40
-10 -40 -5 0 -10 -18 -10 -40 0 -22 5 -40 10 -40 6 0 10 -18 10 -40 0 -22 -4
-40 -10 -40 -5 0 -10 -18 -10 -40 0 -22 5 -40 10 -40 6 0 10 -18 10 -40 0 -22
-4 -40 -10 -40 -5 0 -10 -18 -10 -40 0 -22 5 -40 10 -40 6 0 10 -18 10 -40 0
-22 -4 -40 -10 -40 -5 0 -10 -18 -10 -40 0 -22 5 -40 10 -40 6 0 10 -18 10
-40 0 -22 -4 -40 -10 -40 -5 0 -10 -18 -10 -40 0 -22 5 -40 10 -40 6 0 10 -18
10 -40 0 -22 -4 -40 -10 -40 -5 0 -10 -18 -10 -40 0 -22 5 -40 10 -40 6 0 10
-18 10 -40 0 -22 -4 -40 -10 -40 -5 0 -10 -18 -10 -40 0 -22 5 -40 10 -40 6 0
10 -18 10 -40 0 -22 -4 -40 -10 -40 -5 0 -10 -18 -10 -40 0 -22 5 -40 10 -40
6 0 10 -18 10 -40 0 -22 -4 -40 -10 -40 -5 0 -10 -18 -10 -40 0 -22 5 -40 10
-40 6 0 10 -18 10 -40 0 -22 -4 -40 -10 -40 -5 0 -10 -18 -10 -40 0 -23 5 -40
11 -40 8 0 9 -24 4 -80 -6 -72 -5 -80 10 -80 16 0 17 -8 11 -71 -6 -55 -5 -69
5 -63 9 5 10 2 6 -9 -5 -12 -1 -17 12 -17 15 0 21 -10 26 -40 4 -22 12 -40 18
-40 17 0 60 -67 52 -80 -3 -6 -11 -8 -16 -4 -6 3 -5 -3 3 -15 l13 -21 6 22 c5
22 7 21 41 -16 21 -23 34 -46 31 -55 -4 -12 -2 -13 4 -3 12 16 84 -36 80 -58
-3 -11 5 -15 30 -16 32 0 79 -35 66 -48 -4 -3 12 -5 36 -3 23 2 44 0 47 -5 3
-4 17 -9 32 -9 24 -2 24 -2 5 -6 -31 -6 -29 -23 2 -23 14 0 25 4 25 9 0 12 74
1 78 -11 5 -12 82 -10 82 2 0 6 18 10 40 10 22 0 40 -4 40 -10 0 -5 18 -10 40
-10 22 0 40 5 40 10 0 13 77 13 82 0 2 -6 29 -5 71 3 53 9 72 9 87 -1 24 -15
80 -16 80 -2 0 6 18 10 40 10 22 0 40 -4 40 -10 0 -5 18 -10 40 -10 22 0 40 5
40 10 0 6 18 10 40 10 22 0 40 -4 40 -10 0 -5 18 -10 40 -10 22 0 40 5 40 10
0 6 18 10 40 10 22 0 40 -4 40 -10 0 -5 18 -10 40 -10 22 0 40 5 40 10 0 6 18
10 40 10 23 0 40 -5 40 -11 0 -8 12 -9 38 -3 49 10 922 12 922 2 0 -4 18 -8
40 -8 22 0 40 5 40 10 0 6 18 10 40 10 22 0 40 -4 40 -10 0 -5 18 -10 40 -10
22 0 40 5 40 10 0 6 18 10 40 10 22 0 40 -4 40 -10 0 -5 18 -10 40 -10 22 0
40 5 40 10 0 6 18 10 40 10 22 0 40 -4 40 -10 0 -5 18 -10 40 -10 22 0 40 5
40 10 0 6 18 10 40 10 22 0 40 -4 40 -10 0 -5 18 -10 40 -10 22 0 40 5 40 10
0 6 18 10 40 10 22 0 40 -4 40 -10 0 -5 18 -10 40 -10 22 0 40 5 40 10 0 6 18
10 40 10 22 0 40 -4 40 -10 0 -5 18 -10 40 -10 22 0 40 5 40 10 0 6 18 10 40
10 22 0 40 -4 40 -10 0 -5 18 -10 40 -10 22 0 40 5 40 10 0 6 18 10 40 10 22
0 40 -4 40 -10 0 -5 18 -10 40 -10 22 0 40 5 40 10 0 6 18 10 40 10 22 0 40
-4 40 -10 0 -5 18 -10 40 -10 22 0 40 5 40 10 0 6 18 10 40 10 22 0 40 -4 40
-10 0 -12 77 -14 82 -1 5 13 78 24 78 11 0 -5 7 -10 15 -10 18 0 20 19 3 21
-7 1 3 5 22 8 20 4 38 2 42 -4 5 -6 8 -5 8 3 0 7 14 12 35 12 25 0 35 5 35 15
0 9 16 23 36 32 30 15 36 15 44 3 5 -8 13 -11 17 -6 4 5 2 11 -4 13 -7 3 -13
8 -13 12 0 15 65 55 87 53 12 -1 25 3 28 8 3 6 -1 10 -11 10 -12 0 -8 9 17 38
52 59 65 76 72 96 4 10 16 20 26 23 13 3 21 17 25 44 4 25 12 39 21 39 10 0
15 10 15 31 0 17 4 28 10 24 5 -3 7 14 3 44 -4 39 -2 52 9 56 12 5 14 122 13
804 -1 714 1 798 15 794 13 -4 13 -4 0 6 -13 9 -15 151 -15 1113 0 607 -4
1109 -8 1116 -5 7 -4 12 2 12 6 0 11 18 11 40 0 25 -5 40 -13 40 -18 0 -39 54
-31 84 4 16 2 26 -5 26 -6 0 -11 9 -11 21 0 15 -5 19 -15 15 -12 -4 -14 0 -9
19 4 15 2 25 -5 25 -6 0 -11 9 -11 19 0 12 -9 23 -22 27 -28 8 -38 22 -38 50
0 15 -8 24 -27 29 -38 9 -53 23 -53 50 0 19 -7 24 -40 30 -23 4 -40 12 -40 20
0 7 -13 19 -30 27 -16 7 -30 16 -30 21 0 4 -11 5 -24 1 -13 -3 -27 -1 -30 5
-4 6 -1 11 6 11 7 0 0 7 -16 15 -19 10 -32 12 -36 6 -8 -14 -80 -1 -80 14 0
14 -73 27 -78 13 -5 -12 -82 -10 -82 2 0 6 -18 10 -40 10 -22 0 -40 -4 -40
-10 0 -5 -18 -10 -40 -10 -22 0 -40 5 -40 10 0 6 -18 10 -40 10 -22 0 -40 -4
-40 -10 0 -5 -18 -10 -40 -10 -22 0 -40 5 -40 10 0 6 -18 10 -40 10 -22 0 -40
-4 -40 -10 0 -5 -18 -10 -40 -10 -22 0 -40 5 -40 10 0 6 -18 10 -40 10 -22 0
-40 -4 -40 -10 0 -5 -18 -10 -40 -10 -22 0 -40 5 -40 10 0 6 -18 10 -40 10
-22 0 -40 -4 -40 -10 0 -5 -18 -10 -40 -10 -22 0 -40 5 -40 10 0 6 -18 10 -40
10 -22 0 -40 -4 -40 -10 0 -5 -18 -10 -40 -10 -22 0 -40 5 -40 10 0 6 -18 10
-40 10 -22 0 -40 -4 -40 -10 0 -5 -18 -10 -40 -10 -22 0 -40 5 -40 10 0 6 -18
10 -40 10 -22 0 -40 -4 -40 -10 0 -5 -18 -10 -40 -10 -22 0 -40 5 -40 10 0 6
-18 10 -40 10 -22 0 -40 -4 -40 -10 0 -5 -18 -10 -40 -10 -22 0 -40 5 -40 10
0 6 -18 10 -40 10 -22 0 -40 -4 -40 -10 0 -5 -18 -10 -40 -10 -22 0 -40 5 -40
10 0 6 -18 10 -40 10 -22 0 -40 -4 -40 -10 0 -5 -18 -10 -40 -10 -22 0 -40 5
-40 10 0 6 -18 10 -40 10 -22 0 -40 -4 -40 -10 0 -5 -18 -10 -40 -10 -22 0
-40 5 -40 10 0 6 -18 10 -40 10 -22 0 -40 -4 -40 -10 0 -5 -18 -10 -40 -10
-22 0 -40 5 -40 10 0 6 -18 10 -40 10 -22 0 -40 -4 -40 -10 0 -5 -18 -10 -40
-10 -22 0 -40 5 -40 10 0 6 -18 10 -40 10 -22 0 -40 -4 -40 -10 0 -5 -18 -10
-40 -10 -22 0 -40 5 -40 10 0 6 -18 10 -40 10 -22 0 -40 -4 -40 -10 0 -5 -18
-10 -40 -10 -22 0 -40 5 -40 10 0 6 -18 10 -40 10 -22 0 -40 -4 -40 -10 0 -5
-18 -10 -40 -10 -22 0 -40 5 -40 10 0 6 -18 10 -40 10 -22 0 -40 -4 -40 -10 0
-5 -18 -10 -40 -10 -22 0 -40 5 -40 10 0 6 -18 10 -40 10 -22 0 -40 -4 -40
-10 0 -5 -18 -10 -40 -10 -22 0 -40 5 -40 10 0 6 -18 10 -40 10 -22 0 -40 -4
-40 -10 0 -5 -18 -10 -40 -10 -22 0 -40 5 -40 10 0 6 -18 10 -40 10 -22 0 -40
-4 -40 -10 0 -5 -18 -10 -40 -10 -22 0 -40 5 -40 10 0 6 -18 10 -40 10 -22 0
-40 -4 -40 -10 0 -5 -18 -10 -40 -10 -22 0 -40 5 -40 10 0 6 -18 10 -40 10
-22 0 -40 -4 -40 -10 0 -12 -77 -14 -82 -2 -1 4 -16 5 -33 1z m-511 -384 c-4
-8 -8 -15 -10 -15 -2 0 -4 7 -4 15 0 8 4 15 10 15 5 0 7 -7 4 -15z m1028 -956
c8 -11 9 -11 5 3 -5 15 8 16 150 13 115 -2 158 -7 165 -17 8 -10 9 -9 5 4 -5
15 8 16 150 13 95 -2 158 -7 162 -14 4 -6 24 -8 46 -5 22 2 57 2 78 -2 29 -4
37 -10 37 -26 0 -19 4 -20 61 -15 43 5 70 3 96 -8 19 -8 43 -15 53 -15 10 0
25 -11 34 -25 11 -16 26 -25 44 -25 21 0 24 -2 12 -10 -13 -8 -12 -10 3 -10 9
0 17 4 17 10 0 6 10 5 25 -2 19 -8 22 -14 13 -20 -9 -5 -6 -8 10 -8 12 0 22
-4 22 -10 0 -5 6 -7 14 -4 16 6 78 -44 71 -57 -4 -5 0 -6 8 -4 15 6 111 -82
148 -135 13 -19 31 -44 41 -54 10 -11 19 -23 19 -28 1 -4 3 -12 4 -18 1 -5 3
-19 4 -31 1 -13 6 -19 14 -16 7 3 19 -4 25 -14 10 -16 9 -19 -5 -20 -11 0 -13
-3 -5 -6 6 -2 12 -20 12 -38 0 -26 4 -34 21 -37 17 -2 26 -19 45 -78 13 -41
24 -76 24 -77 0 -2 -7 -3 -15 -3 -8 0 -15 -9 -15 -21 0 -11 4 -17 10 -14 6 4
10 -5 10 -19 0 -16 6 -26 14 -26 9 0 15 -14 18 -40 2 -24 -1 -40 -7 -40 -6 0
-9 -16 -7 -40 3 -26 9 -40 18 -40 10 0 14 -12 14 -40 0 -29 -4 -40 -15 -40
-11 0 -15 -11 -15 -40 0 -29 4 -40 15 -40 20 0 20 -65 0 -104 -17 -33 -19 -56
-5 -56 11 0 13 -39 4 -64 -3 -9 -12 -16 -20 -16 -10 0 -14 -12 -14 -40 0 -22
3 -40 8 -40 4 0 6 -18 4 -40 -3 -26 -9 -40 -18 -40 -10 0 -14 -12 -14 -40 0
-22 -4 -40 -10 -40 -5 0 -10 -9 -10 -19 0 -11 -5 -23 -11 -27 -6 -3 -8 -15 -6
-26 6 -21 -18 -88 -31 -88 -4 0 -12 -14 -17 -32 -6 -17 -19 -36 -30 -42 -34
-19 -45 -34 -45 -60 0 -18 -5 -26 -18 -26 -21 0 -62 -43 -62 -65 0 -8 -7 -15
-15 -15 -8 0 -15 -4 -15 -10 0 -5 -9 -10 -20 -10 -15 0 -22 -8 -26 -29 -5 -24
-12 -30 -45 -35 -30 -5 -39 -11 -39 -26 0 -22 -53 -55 -75 -46 -9 3 -12 0 -9
-8 7 -17 -66 -48 -82 -35 -8 6 -14 4 -18 -7 -4 -11 -13 -14 -31 -10 -18 5 -25
2 -25 -9 0 -9 -9 -15 -25 -15 -14 0 -45 -9 -67 -20 -49 -24 -68 -25 -68 -6 0
8 -9 14 -19 13 -11 0 -17 -5 -15 -9 3 -4 -6 -8 -19 -8 -14 0 -28 -7 -31 -16
-5 -14 -17 -15 -77 -9 -43 4 -74 3 -78 -2 -3 -6 -23 -13 -43 -17 -31 -6 -38
-4 -38 9 0 11 -11 15 -40 15 -22 0 -40 -4 -40 -9 0 -5 -18 -11 -40 -13 -28 -2
-40 0 -40 9 0 8 -14 13 -40 13 -29 0 -40 -4 -40 -15 0 -11 -11 -15 -40 -15
-29 0 -40 4 -40 15 0 11 -11 15 -40 15 -22 0 -40 -4 -40 -9 0 -5 -18 -11 -40
-13 -28 -2 -40 0 -40 9 0 8 -14 13 -40 13 -29 0 -40 -4 -40 -15 0 -21 -68 -21
-76 0 -7 16 -80 22 -86 7 -2 -5 -20 -12 -40 -15 -29 -4 -38 -2 -38 9 0 10 -12
14 -40 14 -29 0 -40 -4 -40 -15 0 -21 -54 -20 -71 2 -20 23 -21 2134 -1 2141
14 4 17 82 3 82 -5 0 -11 -12 -13 -27 -2 -16 -3 19 -2 77 0 58 1 108 2 111 1
4 108 5 238 4 188 -2 238 -5 246 -16z m2668 -616 c19 -3 40 -10 47 -15 7 -6
42 -7 87 -3 65 6 77 5 82 -9 4 -10 18 -16 35 -16 16 0 29 -6 30 -12 0 -7 3 -6
7 4 7 15 9 15 41 0 40 -20 50 -38 24 -45 -10 -3 0 -3 22 0 34 4 45 0 73 -26
18 -17 30 -31 25 -31 -4 -1 7 -7 25 -15 29 -13 39 -33 33 -68 -1 -5 8 -11 19
-14 29 -8 52 -57 50 -106 -2 -54 0 -66 8 -45 4 9 7 -27 8 -80 0 -69 -2 -84 -6
-52 l-7 45 -1 -42 c-1 -23 2 -45 8 -48 5 -3 8 -70 7 -163 -1 -88 -5 -137 -8
-112 l-6 45 -1 -42 c-1 -23 2 -45 8 -48 5 -3 8 -70 7 -163 -1 -88 -5 -137 -8
-112 l-6 45 -1 -42 c-1 -23 2 -45 8 -48 5 -3 8 -70 7 -163 -1 -88 -5 -137 -8
-112 l-6 45 -1 -42 c-1 -23 3 -45 8 -48 6 -3 10 -22 10 -41 0 -19 4 -34 9 -34
15 0 18 -76 3 -89 -10 -10 -10 -16 -1 -27 9 -11 8 -14 -5 -14 -9 0 -16 -7 -16
-15 0 -11 -11 -15 -40 -15 -29 0 -40 4 -40 15 0 11 -11 15 -40 15 -29 0 -40
-4 -40 -15 0 -11 -11 -15 -40 -15 -29 0 -40 4 -40 15 0 8 -6 15 -12 16 -32 3
-62 -4 -75 -17 -34 -33 -77 -10 -71 39 3 26 0 33 -10 29 -11 -4 -13 11 -10 74
3 79 3 79 -23 82 -24 3 -28 -2 -36 -35 -8 -33 -13 -39 -43 -43 -27 -4 -36 -10
-38 -28 -4 -24 -30 -40 -106 -66 -40 -14 -51 -14 -57 -4 -6 10 -11 9 -22 -6
-9 -13 -21 -17 -35 -14 -12 3 -20 1 -19 -4 1 -6 -17 -16 -40 -23 -36 -11 -43
-11 -43 1 0 10 -12 14 -40 14 -29 0 -40 -4 -40 -15 0 -20 -54 -20 -74 1 -11
11 -30 15 -59 13 -63 -4 -107 9 -107 32 0 16 -7 19 -40 19 -22 0 -40 4 -40 8
0 4 -14 16 -30 26 -17 9 -27 22 -24 28 4 7 2 8 -5 4 -7 -4 -19 -5 -29 -1 -14
5 -14 7 -2 15 12 7 11 13 -8 33 -12 13 -22 30 -22 38 0 12 -2 12 -10 -1 -7
-12 -10 -12 -10 -1 0 7 -6 11 -14 8 -10 -4 -13 -1 -9 9 3 7 0 14 -6 14 -6 0
-11 11 -11 25 0 14 -4 25 -10 25 -5 0 -17 14 -26 31 -16 33 -12 78 9 91 9 6 9
8 0 8 -7 0 -13 9 -13 20 0 11 -4 20 -9 20 -5 0 -11 20 -12 44 -3 34 -1 42 10
38 11 -4 13 5 9 49 -6 55 6 109 24 109 16 0 37 32 38 58 0 15 6 22 19 22 11 0
23 12 31 30 7 16 16 27 21 24 5 -3 9 2 9 10 0 9 -5 16 -11 16 -5 0 -7 5 -3 11
5 8 8 8 14 0 4 -7 13 -11 20 -9 21 5 60 45 60 63 0 11 11 15 43 15 31 0 38 3
27 10 -10 6 -11 10 -2 10 6 0 12 6 12 13 0 19 55 36 102 30 39 -4 41 -3 25 10
-16 14 -16 15 5 21 13 3 40 6 61 6 21 0 36 4 32 9 -3 6 11 15 32 20 48 14 63
14 63 1 0 -5 9 -10 20 -10 11 0 20 5 20 10 0 6 9 10 20 10 11 0 20 5 20 10 0
6 16 10 36 10 19 0 45 5 57 12 12 6 48 11 80 10 40 -1 63 3 74 13 8 8 23 15
33 15 26 0 34 50 22 129 -5 33 -5 61 0 61 13 0 9 30 -4 31 -10 0 -10 2 0 6 10
4 7 10 -10 21 -13 9 -26 17 -30 17 -3 0 -10 3 -14 8 -4 4 -16 7 -26 7 -10 0
-18 4 -18 9 0 4 -26 9 -57 9 -32 0 -59 5 -61 11 -4 13 -82 15 -82 2 0 -14 -73
-22 -82 -8 -5 8 -9 6 -14 -6 -3 -9 -16 -17 -28 -17 -14 0 -17 -3 -8 -8 9 -6 5
-12 -15 -23 -37 -19 -54 -36 -52 -51 3 -25 -14 -80 -27 -85 -8 -3 -14 -11 -14
-18 0 -19 -23 -23 -135 -20 -122 3 -118 3 -110 15 3 6 -1 10 -9 10 -9 0 -16
-5 -16 -11 0 -6 -9 -8 -20 -4 -12 4 -27 2 -35 -5 -9 -7 -38 -9 -88 -4 l-76 7
6 51 c3 28 10 53 15 54 4 2 8 13 8 23 0 11 5 17 10 14 6 -3 10 5 10 19 0 13
-4 26 -9 28 -13 4 21 78 36 78 7 0 13 8 13 18 1 23 34 62 55 62 9 0 19 8 22
19 7 28 60 63 86 57 12 -3 16 -3 10 0 -22 10 -15 19 23 33 26 9 38 10 43 2 8
-12 51 -3 51 11 0 5 4 7 9 3 6 -3 15 4 21 16 10 18 18 21 57 16 25 -3 40 -1
33 3 -24 15 10 21 80 14 49 -5 70 -3 70 5 0 6 17 11 40 11 22 0 40 -4 40 -10
0 -5 18 -10 40 -10 28 0 40 4 40 14 0 11 7 12 38 4 20 -5 53 -12 72 -15z m115
-3 c15 -7 10 -9 -22 -9 -24 -1 -43 4 -43 9 0 12 37 12 65 0z"/>
<path d="M685 3720 c3 -5 22 -10 41 -10 19 0 34 5 34 10 0 6 -18 10 -41 10
-24 0 -38 -4 -34 -10z"/>
<path d="M840 3719 c0 -5 5 -7 10 -4 6 3 10 8 10 11 0 2 -4 4 -10 4 -5 0 -10
-5 -10 -11z"/>
<path d="M1000 3720 c0 -5 18 -10 40 -10 22 0 40 5 40 10 0 6 -18 10 -40 10
-22 0 -40 -4 -40 -10z"/>
<path d="M1320 3720 c0 -5 18 -10 40 -10 22 0 40 5 40 10 0 6 -18 10 -40 10
-22 0 -40 -4 -40 -10z"/>
<path d="M1640 3720 c0 -5 18 -10 40 -10 22 0 40 5 40 10 0 6 -18 10 -40 10
-22 0 -40 -4 -40 -10z"/>
<path d="M898 3713 c7 -3 16 -2 19 1 4 3 -2 6 -13 5 -11 0 -14 -3 -6 -6z"/>
<path d="M1203 3713 c9 -2 23 -2 30 0 6 3 -1 5 -18 5 -16 0 -22 -2 -12 -5z"/>
<path d="M1523 3713 c9 -2 23 -2 30 0 6 3 -1 5 -18 5 -16 0 -22 -2 -12 -5z"/>
<path d="M2580 3321 c0 -6 5 -13 10 -16 6 -3 10 1 10 9 0 9 -4 16 -10 16 -5 0
-10 -4 -10 -9z"/>
<path d="M1578 3253 c12 -2 32 -2 45 0 12 2 2 4 -23 4 -25 0 -35 -2 -22 -4z"/>
<path d="M680 3210 c0 -22 5 -40 10 -40 6 0 10 18 10 40 0 22 -4 40 -10 40 -5
0 -10 -18 -10 -40z"/>
<path d="M1480 3241 c0 -5 -18 -11 -40 -13 -22 -2 -40 0 -40 4 0 10 -41 10
-93 1 -32 -5 -39 -11 -44 -34 -3 -16 -9 -29 -14 -29 -12 0 -11 -27 1 -32 15
-5 19 -129 3 -135 -15 -6 -18 -73 -3 -73 15 0 12 -77 -2 -83 -10 -4 -10 -7 -1
-14 18 -13 23 -144 6 -150 -15 -6 -18 -73 -3 -73 15 0 12 -77 -2 -83 -10 -4
-10 -7 -1 -14 17 -12 22 -149 5 -146 -8 2 -12 -11 -12 -37 0 -22 5 -40 10 -40
15 0 12 -77 -2 -83 -10 -4 -10 -7 -1 -14 17 -12 22 -143 6 -143 -8 0 -13 -14
-13 -40 0 -22 5 -40 10 -40 15 0 12 -77 -2 -83 -10 -4 -10 -6 0 -6 6 -1 12
-12 12 -26 0 -21 5 -25 30 -25 17 0 30 5 30 10 0 6 18 10 40 10 22 0 40 -4 40
-10 0 -5 18 -10 40 -10 22 0 40 5 40 10 0 6 18 10 40 10 22 0 40 -4 40 -10 0
-13 77 -13 82 -1 2 5 20 12 41 16 30 6 37 4 37 -9 0 -18 25 -22 35 -5 4 6 14
8 22 5 9 -4 17 1 20 13 6 23 68 38 88 21 9 -8 15 -8 20 0 4 6 3 9 -2 8 -22 -8
-12 19 13 34 38 22 44 22 44 1 0 -15 2 -16 9 -3 6 8 8 17 5 21 -2 4 6 9 19 13
17 5 19 8 8 15 -10 7 -8 12 10 25 18 12 25 13 31 3 5 -8 8 -6 8 7 0 11 3 17 6
13 4 -3 14 1 23 10 11 11 12 18 4 20 -8 3 -5 16 10 41 l22 37 7 -30 c6 -24 6
-21 4 12 -2 24 0 46 5 49 5 3 9 14 9 25 0 11 10 23 24 29 30 11 37 43 40 184
1 75 6 111 14 114 17 5 15 22 -3 22 -11 0 -15 11 -15 40 0 29 4 40 15 40 11 0
15 11 15 43 0 31 -3 38 -10 27 -7 -11 -10 -11 -10 -2 0 7 -4 11 -8 8 -5 -3 -6
8 -4 24 2 18 -4 48 -17 75 -24 52 -26 65 -8 65 8 0 14 7 14 15 0 8 -4 15 -8
15 -3 0 -9 9 -12 21 -3 11 -15 23 -26 26 -19 5 -28 32 -22 66 1 4 -9 11 -22
16 -28 11 -61 57 -54 76 4 8 -1 11 -13 8 -21 -6 -58 23 -71 55 -7 17 -16 22
-44 22 -24 0 -35 5 -35 15 0 8 -5 15 -11 15 -5 0 -7 5 -4 10 4 6 -8 10 -29 10
-20 0 -36 -3 -36 -8 0 -4 -18 -6 -40 -4 -25 3 -40 9 -40 17 0 11 -21 13 -92
12 -51 -1 -105 1 -120 6 -16 4 -28 3 -28 -2z m716 -949 c-13 -12 -17 8 -9 44
l8 39 3 -39 c2 -21 1 -41 -2 -44z"/>
<path d="M680 2890 c0 -22 5 -40 10 -40 6 0 10 18 10 40 0 22 -4 40 -10 40 -5
0 -10 -18 -10 -40z"/>
<path d="M680 2570 c0 -22 5 -40 10 -40 6 0 10 18 10 40 0 22 -4 40 -10 40 -5
0 -10 -18 -10 -40z"/>
<path d="M680 2250 c0 -22 5 -40 10 -40 6 0 10 18 10 40 0 22 -4 40 -10 40 -5
0 -10 -18 -10 -40z"/>
<path d="M680 1930 c0 -22 5 -40 10 -40 6 0 10 18 10 40 0 22 -4 40 -10 40 -5
0 -10 -18 -10 -40z"/>
<path d="M680 1610 c0 -22 5 -40 10 -40 6 0 10 18 10 40 0 22 -4 40 -10 40 -5
0 -10 -18 -10 -40z"/>
<path d="M3658 2833 c7 -3 16 -2 19 1 4 3 -2 6 -13 5 -11 0 -14 -3 -6 -6z"/>
<path d="M3850 2200 c0 -5 -11 -10 -25 -10 -15 0 -25 -6 -25 -14 0 -17 -58
-30 -117 -27 -40 2 -59 -12 -30 -22 6 -2 -12 -2 -41 1 -40 3 -52 2 -50 -9 4
-18 -72 -56 -101 -51 -18 4 -23 1 -19 -9 3 -8 -5 -22 -18 -32 -13 -10 -24 -13
-24 -7 0 5 -4 10 -9 10 -4 0 -11 -26 -15 -57 -3 -32 -9 -81 -12 -109 -6 -46
-4 -52 15 -57 13 -3 21 -13 21 -26 0 -12 5 -21 10 -21 6 0 10 -7 10 -15 0 -10
10 -15 30 -15 23 0 30 -4 30 -20 0 -12 7 -20 18 -21 9 0 27 -2 40 -3 12 -2 22
2 22 7 0 6 30 8 79 4 73 -6 79 -5 84 13 4 15 14 20 41 20 27 0 36 4 37 18 0
21 55 66 72 59 9 -3 12 3 9 22 -2 18 4 35 22 54 14 16 26 39 26 52 0 13 6 26
13 28 8 4 9 6 0 6 -13 1 -7 67 7 86 5 6 10 39 13 75 2 36 2 50 0 33 -6 -45
-23 -42 -23 3 0 35 -1 36 -30 32 -16 -3 -30 -1 -30 4 0 4 -7 8 -15 8 -8 0 -15
-4 -15 -10z"/>
<path d="M3341 1844 c0 -11 3 -14 6 -6 3 7 2 16 -1 19 -3 4 -6 -2 -5 -13z"/>
<path d="M5080 4236 c0 -14 5 -26 10 -26 6 0 10 9 10 19 0 11 -4 23 -10 26 -6
4 -10 -5 -10 -19z"/>
<path d="M5080 4115 c0 -8 5 -15 10 -15 6 0 10 7 10 15 0 8 -4 15 -10 15 -5 0
-10 -7 -10 -15z"/>
<path d="M5080 3915 c0 -14 5 -25 10 -25 6 0 10 11 10 25 0 14 -4 25 -10 25
-5 0 -10 -11 -10 -25z"/>
<path d="M5080 3801 c0 -6 5 -13 10 -16 6 -3 10 1 10 9 0 9 -4 16 -10 16 -5 0
-10 -4 -10 -9z"/>
<path d="M5080 3595 c0 -14 5 -25 10 -25 6 0 10 11 10 25 0 14 -4 25 -10 25
-5 0 -10 -11 -10 -25z"/>
<path d="M5080 3481 c0 -6 5 -13 10 -16 6 -3 10 1 10 9 0 9 -4 16 -10 16 -5 0
-10 -4 -10 -9z"/>
<path d="M5080 3275 c0 -14 5 -25 10 -25 6 0 10 11 10 25 0 14 -4 25 -10 25
-5 0 -10 -11 -10 -25z"/>
<path d="M5080 3161 c0 -6 5 -13 10 -16 6 -3 10 1 10 9 0 9 -4 16 -10 16 -5 0
-10 -4 -10 -9z"/>
<path d="M5080 2960 c0 -16 5 -30 10 -30 6 0 10 14 10 30 0 17 -4 30 -10 30
-5 0 -10 -13 -10 -30z"/>
<path d="M5085 2840 c3 -5 8 -10 11 -10 2 0 4 5 4 10 0 6 -5 10 -11 10 -5 0
-7 -4 -4 -10z"/>
<path d="M5080 2640 c0 -16 5 -30 10 -30 6 0 10 14 10 30 0 17 -4 30 -10 30
-5 0 -10 -13 -10 -30z"/>
<path d="M5085 2520 c3 -5 8 -10 11 -10 2 0 4 5 4 10 0 6 -5 10 -11 10 -5 0
-7 -4 -4 -10z"/>
<path d="M5080 2320 c0 -16 5 -30 10 -30 6 0 10 14 10 30 0 17 -4 30 -10 30
-5 0 -10 -13 -10 -30z"/>
<path d="M5080 2005 c0 -19 5 -35 10 -35 6 0 10 16 10 35 0 19 -4 35 -10 35
-5 0 -10 -16 -10 -35z"/>
<path d="M5080 1685 c0 -19 5 -35 10 -35 6 0 10 16 10 35 0 19 -4 35 -10 35
-5 0 -10 -16 -10 -35z"/>
<path d="M5080 1365 c0 -19 5 -35 10 -35 6 0 10 16 10 35 0 19 -4 35 -10 35
-5 0 -10 -16 -10 -35z"/>
<path d="M5080 1050 c0 -25 4 -39 10 -35 6 3 10 19 10 35 0 16 -4 32 -10 35
-6 4 -10 -10 -10 -35z"/>
<path d="M5080 729 c0 -24 4 -38 10 -34 6 3 10 22 10 41 0 19 -4 34 -10 34 -5
0 -10 -18 -10 -41z"/>
<path d="M4920 280 c0 -5 5 -10 10 -10 6 0 10 5 10 10 0 6 -4 10 -10 10 -5 0
-10 -4 -10 -10z"/>
</g>
</svg>
