<?xml version="1.0" standalone="no"?>
<!DOCTYPE svg PUBLIC "-//W3C//DTD SVG 20010904//EN"
 "http://www.w3.org/TR/2001/REC-SVG-20010904/DTD/svg10.dtd">
<svg version="1.0" xmlns="http://www.w3.org/2000/svg"
 width="271.000000pt" height="260.000000pt" viewBox="0 0 271.000000 260.000000"
 preserveAspectRatio="xMidYMid meet">

<g transform="translate(0.000000,260.000000) scale(0.100000,-0.100000)"
fill="#000000" stroke="none">
<path d="M0 1300 l0 -1300 1355 0 1355 0 0 25 0 25 -202 1 c-174 1 -196 3
-156 13 26 6 58 20 70 31 13 11 26 19 29 18 3 -1 21 14 39 32 19 19 30 35 26
35 -5 0 3 12 18 26 14 15 26 38 26 51 0 13 6 38 13 56 17 41 18 2014 1 2025
-11 7 -38 69 -33 74 2 2 -8 14 -22 28 -13 14 -31 34 -39 45 -8 11 -35 31 -60
44 -25 14 -47 28 -50 31 -3 4 -12 10 -20 13 -8 3 69 6 173 6 117 1 187 5 187
11 0 7 -458 10 -1355 10 l-1355 0 0 -1300z m310 1273 c-40 -4 -100 -30 -100
-42 0 -5 -16 -16 -35 -25 -21 -10 -41 -30 -51 -51 -9 -19 -20 -35 -25 -35 -12
0 -38 -60 -42 -100 -2 -19 -5 31 -5 113 l-2 147 148 -2 c81 0 131 -3 112 -5z
m615 -666 c33 -2 80 -9 105 -16 25 -7 56 -15 70 -18 13 -2 27 -8 30 -12 3 -4
27 -15 53 -25 27 -10 53 -27 60 -37 6 -10 17 -19 24 -19 10 0 22 -13 71 -75
25 -32 44 -66 48 -91 3 -15 10 -37 16 -48 7 -12 13 -39 16 -61 2 -22 7 -42 11
-45 12 -8 21 -210 10 -237 -5 -13 -11 -50 -13 -81 -5 -63 -33 -136 -71 -186
-14 -18 -25 -35 -25 -38 0 -12 -91 -95 -124 -112 -20 -11 -36 -23 -36 -27 0
-8 -70 -34 -84 -31 -4 2 -14 -2 -20 -7 -21 -17 -102 -22 -403 -25 -260 -2
-293 -1 -294 13 -1 9 -2 278 -3 598 l-1 582 45 3 c46 3 408 -1 515 -5z m1115
-320 c46 -6 90 -19 90 -27 0 -5 16 -14 35 -20 26 -8 39 -21 50 -46 8 -19 18
-34 23 -34 20 0 25 -64 27 -360 1 -168 5 -321 9 -341 l8 -36 -60 -7 c-73 -8
-143 2 -159 23 -7 9 -13 31 -13 49 0 17 -3 32 -7 32 -5 0 -24 -16 -44 -35 -20
-18 -63 -43 -95 -55 -124 -43 -302 -11 -340 62 -8 15 -19 28 -25 28 -17 0 -29
48 -33 133 -5 77 -3 85 24 129 31 49 141 138 171 138 9 0 30 7 45 15 16 8 43
15 60 15 17 0 53 7 80 15 27 8 64 14 82 13 18 -1 35 2 39 6 13 13 2 121 -14
139 -9 9 -18 15 -20 13 -2 -2 -24 2 -49 10 -25 7 -59 11 -76 7 -37 -7 -108
-75 -108 -103 0 -19 -7 -20 -125 -20 l-125 0 0 24 c0 14 4 27 9 30 4 3 12 20
16 38 4 18 8 35 9 38 5 18 33 50 43 50 6 0 18 8 25 18 14 20 53 44 60 37 2 -2
26 4 54 15 42 17 67 19 179 14 72 -2 141 -6 155 -7z m-1970 -1327 c3 -3 17
-25 31 -50 13 -25 35 -54 49 -65 14 -11 33 -28 42 -37 10 -10 20 -18 23 -18
12 -1 75 -31 75 -35 0 -3 -54 -5 -120 -5 l-120 0 1 123 c0 67 3 115 6 107 3
-8 9 -17 13 -20z"/>
<path d="M656 1326 c1 -188 2 -347 3 -353 1 -16 271 -19 271 -3 0 6 11 10 25
10 24 0 126 80 133 104 2 6 12 29 22 51 35 74 33 269 -2 368 -6 15 -15 27 -20
27 -5 0 -7 4 -4 9 8 13 -57 75 -99 95 -46 22 -70 25 -215 29 l-115 3 1 -340z"/>
<path d="M1953 1130 c-13 -5 -40 -11 -62 -14 -22 -3 -66 -17 -99 -33 -46 -22
-61 -34 -66 -54 -3 -15 -8 -38 -11 -51 -5 -18 1 -32 26 -57 30 -32 34 -33 102
-32 39 1 74 5 77 9 3 5 22 21 43 36 21 16 36 34 34 40 -2 6 2 31 10 55 7 24
13 59 13 78 0 28 -4 33 -22 32 -13 0 -33 -4 -45 -9z"/>
</g>
</svg>
